<svg xmlns:svg="http://www.w3.org/2000/svg" xmlns="http://www.w3.org/2000/svg" xmlns:xlink="http://www.w3.org/1999/xlink" version="1.1" width="833.69037" height="835.26447" id="svg2"><style>.s0{stroke-width:1;stroke:#000;}.s1{fill:#1a1a1a;}.s2{fill:#811;}.s3{fill:#590a0a;}.s4{-inkscape-font-specification:Aharoni CLM Bold;fill:#000;font-family:Aharoni CLM;}.s5{-inkscape-font-specification:Aharoni CLM Bold;fill:#c9c0af;font-family:Aharoni CLM;}</style><title id="title5682">Redstoner Logo</title><defs id="defs4"><linearGradient id="linearGradient5406"><stop id="stop5414" offset="0" style="stop-color:#b31a12;stop-opacity:1"/><stop id="stop5410" offset="1" style="stop-color:#8f2620;stop-opacity:1"/></linearGradient><marker refX="0" refY="0" orient="auto" id="Arrow1Mend"><path d="M0 0 5-5-12.5 0 5 5 0 0z" transform="matrix(-0.4,0,0,-0.4,-4,0)" id="path4307" class="s0"/></marker><marker refX="0" refY="0" orient="auto" id="Arrow2Lstart"><path d="M8.7185878 4.0337352-2.2072895 0.01601326 8.7185884-4.0017078c-1.7454984 2.3720609-1.7354408 5.6174519-6e-7 8.035443z" transform="matrix(1.1,0,0,1.1,1.1,0)" id="path4316" style="stroke-linejoin:round;stroke-width:0.625"/></marker><marker refX="0" refY="0" orient="auto" id="Arrow1Lstart"><path d="M0 0 5-5-12.5 0 5 5 0 0z" transform="matrix(0.8,0,0,0.8,10,0)" id="path4298" class="s0"/></marker><linearGradient x1="400" y1="642.36218" x2="400" y2="642.36218" id="linearGradient5412" xlink:href="#linearGradient5406" gradientUnits="userSpaceOnUse"/><linearGradient x1="400" y1="817.36218" x2="400" y2="817.36218" id="linearGradient5445" xlink:href="#linearGradient5406" gradientUnits="userSpaceOnUse"/><filter color-interpolation-filters="sRGB" id="filter5591"><feGaussianBlur id="feGaussianBlur5593" stdDeviation="3.550001"/></filter><filter color-interpolation-filters="sRGB" id="filter5678"><feGaussianBlur id="feGaussianBlur5680" stdDeviation="4.9"/></filter><filter color-interpolation-filters="sRGB" id="filter5702"><feGaussianBlur id="feGaussianBlur5704" stdDeviation="7.6558222"/></filter><filter color-interpolation-filters="sRGB" id="filter5905"><feGaussianBlur id="feGaussianBlur5907" stdDeviation="14.534259"/></filter><filter color-interpolation-filters="sRGB" id="filter5911"><feGaussianBlur id="feGaussianBlur5913" stdDeviation="3.8358112"/></filter><linearGradient x1="400" y1="642.36218" x2="400" y2="642.36218" id="linearGradient5915" xlink:href="#linearGradient5406" gradientUnits="userSpaceOnUse"/></defs><g transform="translate(16.845184,-230.97996)" id="layer1"><path d="m40 372.36218c0 0 175.26347 18.46367 360-87.5 184.45252 105.80077 360 87.5 360 87.5 0 0 60 540-360 640.00002C-20 912.36218 40 372.36218 40 372.36218z" id="path5891" style="fill:none;filter:url(#filter5905);stroke-width:38;stroke:#1a1a1a"/><path d="m40 372.36218c0 0 175.26347 18.46367 360-87.5 184.45252 105.80077 360 87.5 360 87.5 0 0 60 540-360 640.00002C-20 912.36218 40 372.36218 40 372.36218z" id="path3019" style="fill:#c9c0ad;stroke-width:38;stroke:url(#linearGradient5915)"/><path d="m57.5 392.36218c0 0 170.69503 12.85246 342.5-85.69375 171.54084 98.39472 342.5 85.69375 342.5 85.69375 0 0 48.1 507.49998-342.5 600.5-390.6-93.00002-342.5-600.5-342.5-600.5z" id="path5652" style="fill:none;stroke-width:3.72;stroke:#fff"/></g><g transform="translate(16.845184,21.382221)" id="layer4"><path d="m588 390-14-24-146 0 13.05802 13.4523L413 366l-60 0 0 59 13 16 132 0 0 80-205 0 0-280 15-10 0-20 190 0 0 65 90 0 0-55-35 0 35-10-1-63.6914-9-11.6914-171 0.3828-4 4 0.75 17.5 57.25 36.5-61-34-4-21.5-6-2.5-162 0-20 32 0 113 30 5-30 0-0.22586 183.01129-1.14075 51.6984 61.44486-0.005-10.27757-42.0026 15.72243 41.9974 314.88973-0.0104-0.10321-44.67227-30.05161-4.33614 29.9484-2.33614z" id="path5909" style="fill:#1a1a1a;filter:url(#filter5911);stroke-width:5;stroke:#1a1a1a"/><path d="m588 390-14-24-146 0 13.05802 13.4523L413 366l-60 0 0 59 13 16 132 0 0 80-205 0 0-280 15-10 0-20 190 0 0 65 90 0 0-55-35 0 35-10-1-63.6914-9-11.6914-171 0.3828-4 4 0.75 17.5 57.25 36.5-61-34-4-21.5-6-2.5-162 0-20 32 0 113 30 5-30 0-0.22586 183.01129-1.14075 51.6984 61.44486-0.005-10.27757-42.0026 15.72243 41.9974 314.88973-0.0104-0.10321-44.67227-30.05161-4.33614 29.9484-2.33614z" id="path5773" style="fill:none;stroke-width:5;stroke:#912a2c"/><path d="m588 390-14-24-146 0 13.05802 13.4523L413 366l-60 0 0 59 13 16 132 0 0 80-205 0 0-280 15-10 0-20 190 0 0 65 90 0 0-55-35 0 35-10-1-63.6914-9-11.6914-171 0.3828-4 4 0.75 17.5 57.25 36.5-61-34-4-21.5-6-2.5-162 0-20 32 0 113 30 5-30 0-0.22586 183.01129-1.14075 51.6984 61.44486-0.005-10.27757-42.0026 15.72243 41.9974 314.88973-0.0104-0.10321-44.67227-30.05161-4.33614 29.9484-2.33614z" id="path5889" fill="#b6aa8f"/></g><g transform="translate(16.845184,21.382221)" id="layer3"><g transform="translate(0.84375,3)" id="g5666" style="fill:#1a1a1a;filter:url(#filter5678)"><path d="m800 580-125 0 0 120 125 0-65-60zM720 640l-45 0 0 60 0 0M720 640l-45 0 0 60 0 0zM0 580l125 0 0 120-125 0 65-60zM80 640l45 0 0 60 0 0z" id="path5668" fill="#1a1a1a"/><rect width="640" height="120" x="80" y="520" id="rect5676" fill="#1a1a1a"/></g><g transform="translate(0.84375,-5)" id="g5539"><path d="m800 580-125 0 0 120 125 0-65-60z" id="rect5479-8-6" fill="#811"/><path d="m720 640-45 0 0 60 0 0z" id="rect5479-8-8-6" fill="#590a0a"/><path d="m0 580 125 0 0 120-125 0 65-60z" id="rect5479-8" fill="#811"/><path d="m80 640 45 0 0 60 0 0z" id="rect5479-8-8" fill="#590a0a"/><rect width="640" height="120" x="80" y="520" id="rect5479" fill="#9e1111"/></g><g transform="matrix(0.96331977,0,0,1.0380769,-14,0)" id="text5587" style="-inkscape-font-specification:Aharoni CLM Bold;fill:#000;filter:url(#filter5591);font-family:Aharoni CLM;font-size:130.275;font-weight:bold;letter-spacing:0;line-height:125;opacity:0.771;word-spacing:0"><path d="m111.59326 602.83167 16.38903 0 0-33.85472 23.20782 33.85472 20.21712 0-23.92559-32.65844c6.81879-1.67479 10.16838-3.22995 13.99647-6.45991 5.9814-5.14399 9.09173-12.20206 9.09173-20.93489 0-8.97209-3.22996-16.62829-9.33098-21.77229-5.74214-4.90474-12.08244-6.57953-24.16485-6.57953l-25.48075 0 0 88.40506m16.38903-46.17639 0-26.55741 7.2973 0c7.65618 0 11.84317 0.8374 14.47499 3.11033 2.87106 2.27292 4.3066 5.74214 4.3066 10.04874 0 9.33098-5.38327 13.39834-18.06382 13.39834l-8.01507 0M181.05621 602.83167l47.4923 0 0-15.67127-31.10327 0 0-20.576 29.78736 0 0-15.67127-29.78736 0 0-20.81526 31.10327 0 0-15.67126-47.4923 0 0 88.40506M181.05621 602.83167l47.4923 0 0-15.67127-31.10327 0 0-20.576 29.78736 0 0-15.67127-29.78736 0 0-20.81526 31.10327 0 0-15.67126-47.4923 0 0 88.40506M243.14032 602.83167l20.576 0c13.39832 0 21.41341-1.31592 28.59108-4.90475 13.63758-6.69916 21.65266-21.29379 21.65266-39.11834 0-16.7479-6.93843-30.62477-19.2601-38.04169-6.93841-4.18698-17.46569-6.34028-31.34252-6.34028l-20.21712 0 0 88.40506m16.38903-15.67127 0-57.06253 3.22995 0c10.40762 0 16.03015 0.95703 21.17415 3.58884 8.37395 4.3066 13.51796 13.75722 13.51796 25.12187 0 10.64688-4.90476 20.0975-12.80019 24.4041-4.90475 2.75144-11.72355 3.94772-21.53304 3.94772l-3.58883 0M320.39217 577.59017c0.59814 6.93841 2.1533 11.36466 5.74214 16.03014 5.26362 6.81879 13.99648 10.76652 23.32745 10.76652 15.9105 0 28.2322-12.3217 28.2322-28.35183 0-7.29729-2.75145-13.63759-7.89545-18.4227-3.4692-3.22995-6.34029-4.78512-14.95349-8.01507-8.37395-3.11033-8.61322-3.22996-9.80949-3.94773-3.22996-2.03367-4.90475-4.78512-4.90475-8.01507 0-5.26362 3.70847-8.9721 9.09172-8.9721 5.50289 0 8.85247 3.34959 9.33099 9.33098l16.98716 0c-0.35888-6.69915-1.91405-11.24503-5.50288-15.67126-4.78511-5.98139-12.44132-9.45061-20.69564-9.45061-14.23571 0-25.72001 11.12542-25.72001 25.12187 0 11.12539 6.57955 19.61899 18.42271 24.04522 11.84315 4.42623 12.56094 4.78512 15.31238 6.8188 2.63181 2.1533 4.06735 5.26363 4.06735 8.97209 0 6.34028-4.90476 10.76652-11.9628 10.76652-7.2973 0-11.24503-3.58885-11.96279-11.00577l-17.1068 0M398.02791 602.83167l16.38903 0 0-72.7338 16.38903 0 0-15.67126-49.16709 0 0 15.67126 16.38903 0 0 72.7338M481.1705 512.87144c-26.31813 0-46.6549 19.9779-46.6549 45.81751 0 25.48073 20.57603 45.69788 46.53527 45.69788 25.71998 0 45.57825-19.9779 45.57825-45.81751 0-25.24147-20.21715-45.69788-45.45862-45.69788m-0.23926 15.79089c16.38902 0 29.18922 13.1591 29.18922 30.14625 0 16.98715-12.44132 29.78736-29.18922 29.78736-16.74789 0-29.90699-13.15909-29.90699-29.90699 0-17.10678 12.91984-30.02662 29.90699-30.02662M539.56646 602.83167l16.38903 0 0-64.24022 36.96504 64.24022 18.30308 0 0-88.40506-16.38903 0 0 64.35984-36.60616-64.35984-18.66196 0 0 88.40506M628.11267 602.83167l47.49229 0 0-15.67127-31.10326 0 0-20.576 29.78736 0 0-15.67127-29.78736 0 0-20.81526 31.10326 0 0-15.67126-47.49229 0 0 88.40506M690.19677 602.83167l16.38903 0 0-33.85472 23.20783 33.85472 20.21712 0-23.92559-32.65844c6.81879-1.67479 10.16838-3.22995 13.99647-6.45991 5.98139-5.14399 9.09172-12.20206 9.09172-20.93489 0-8.97209-3.22996-16.62829-9.33098-21.77229-5.74213-4.90474-12.08243-6.57953-24.16484-6.57953l-25.48076 0 0 88.40506m16.38903-46.17639 0-26.55741 7.29731 0c7.65618 0 11.84317 0.8374 14.47498 3.11033 2.87107 2.27292 4.30661 5.74214 4.30661 10.04874 0 9.33098-5.38327 13.39834-18.06382 13.39834l-8.01508 0" id="path5937" class="s4"/></g><g transform="scale(0.96331977,1.0380769)" id="text5546" style="-inkscape-font-specification:Aharoni CLM Bold;fill:#c9c0af;font-family:Aharoni CLM;font-size:130.275;font-weight:bold;letter-spacing:0;line-height:125;word-spacing:0"><path d="m97.060169 598.11139 16.389031 0 0-33.85471 23.20782 33.85471 20.21713 0-23.92559-32.65843c6.81878-1.67479 10.16838-3.22996 13.99647-6.45991 5.98139-5.144 9.09172-12.20206 9.09172-20.93489 0-8.97209-3.22996-16.62829-9.33098-21.77229-5.74214-4.90474-12.08244-6.57954-24.16485-6.57954l-25.480751 0 0 88.40506M113.4492 551.935l0-26.55741 7.2973 0c7.65619 0 11.84317 0.8374 14.47499 3.11033 2.87106 2.27293 4.3066 5.74215 4.3066 10.04875 0 9.33097-5.38327 13.39833-18.06382 13.39833l-8.01507 0M166.52312 598.11139l47.4923 0 0-15.67126-31.10327 0 0-20.57601 29.78736 0 0-15.67126-29.78736 0 0-20.81527 31.10327 0 0-15.67126-47.4923 0 0 88.40506M166.52312 598.11139l47.4923 0 0-15.67126-31.10327 0 0-20.57601 29.78736 0 0-15.67126-29.78736 0 0-20.81527 31.10327 0 0-15.67126-47.4923 0 0 88.40506M228.60723 598.11139l20.57601 0c13.39831 0 21.41341-1.31591 28.59108-4.90475 13.63757-6.69916 21.65266-21.29379 21.65266-39.11834 0-16.74789-6.93844-30.62476-19.2601-38.04169-6.93842-4.18697-17.4657-6.34028-31.34253-6.34028l-20.21712 0 0 88.40506m16.38903-15.67126 0-57.06254 3.22995 0c10.40762 0 16.03015 0.95703 21.17415 3.58884 8.37395 4.3066 13.51796 13.75723 13.51796 25.12187 0 10.64688-4.90476 20.0975-12.80019 24.4041-4.90474 2.75144-11.72355 3.94773-21.53303 3.94773l-3.58884 0M305.85908 572.86989c0.59814 6.93842 2.15331 11.36466 5.74214 16.03015 5.26363 6.81878 13.99648 10.76651 23.32745 10.76651 15.9105 0 28.2322-12.32169 28.2322-28.35182 0-7.2973-2.75145-13.63759-7.89545-18.42271-3.4692-3.22995-6.34029-4.78512-14.95349-8.01507-8.37395-3.11032-8.61321-3.22996-9.80949-3.94772-3.22995-2.03368-4.90475-4.78512-4.90475-8.01508 0-5.26362 3.70847-8.97209 9.09173-8.97209 5.50288 0 8.85247 3.34959 9.33098 9.33098l16.98717 0c-0.35889-6.69916-1.91405-11.24503-5.50289-15.67126-4.78511-5.9814-12.44132-9.45061-20.69564-9.45061-14.23571 0-25.72001 11.12541-25.72001 25.12187 0 11.12539 6.57955 19.61899 18.42271 24.04522 11.84315 4.42623 12.56094 4.78512 15.31238 6.81879 2.63181 2.1533 4.06735 5.26363 4.06735 8.9721 0 6.34027-4.90476 10.76651-11.9628 10.76651-7.2973 0-11.24503-3.58884-11.96279-11.00577l-17.1068 0M383.49482 598.11139l16.38903 0 0-72.7338 16.38903 0 0-15.67126-49.16709 0 0 15.67126 16.38903 0 0 72.7338M466.63741 508.15117c-26.31812 0-46.6549 19.97789-46.6549 45.8175 0 25.48073 20.57603 45.69788 46.53527 45.69788 25.71999 0 45.57825-19.97789 45.57825-45.8175 0-25.24148-20.21715-45.69788-45.45862-45.69788m-0.23926 15.79089c16.38902 0 29.18922 13.15909 29.18922 30.14624 0 16.98715-12.44132 29.78736-29.18922 29.78736-16.74789 0-29.90698-13.15909-29.90698-29.90699 0-17.10678 12.91983-30.02661 29.90698-30.02661M525.03337 598.11139l16.38903 0 0-64.24021 36.96504 64.24021 18.30308 0 0-88.40506-16.38903 0 0 64.35984-36.60615-64.35984-18.66197 0 0 88.40506M613.57958 598.11139l47.4923 0 0-15.67126-31.10327 0 0-20.57601 29.78736 0 0-15.67126-29.78736 0 0-20.81527 31.10327 0 0-15.67126-47.4923 0 0 88.40506M675.66368 598.11139l16.38903 0 0-33.85471 23.20783 33.85471 20.21712 0-23.92559-32.65843c6.81879-1.67479 10.16838-3.22996 13.99647-6.45991 5.98139-5.144 9.09173-12.20206 9.09173-20.93489 0-8.97209-3.22996-16.62829-9.33098-21.77229-5.74214-4.90474-12.08244-6.57954-24.16485-6.57954l-25.48076 0 0 88.40506m16.38903-46.17639 0-26.55741 7.29731 0c7.65618 0 11.84317 0.8374 14.47498 3.11033 2.87107 2.27293 4.30661 5.74215 4.30661 10.04875 0 9.33097-5.38327 13.39833-18.06382 13.39833l-8.01508 0" id="path5918" class="s5"/></g></g></svg>